<?xml version="1.0" standalone="no"?>
<!DOCTYPE svg PUBLIC "-//W3C//DTD SVG 20010904//EN"
 "http://www.w3.org/TR/2001/REC-SVG-20010904/DTD/svg10.dtd">
<svg version="1.0" xmlns="http://www.w3.org/2000/svg"
 width="270.000000pt" height="270.000000pt" viewBox="0 0 270.000000 270.000000"
 preserveAspectRatio="xMidYMid meet">
<metadata>
Created by potrace 1.11, written by Peter Selinger 2001-2013
</metadata>
<g transform="translate(0.000000,270.000000) scale(0.100000,-0.100000)"
fill="#000000" stroke="none">
<path d="M1205 2529 c-231 -36 -357 -84 -543 -207 -230 -151 -431 -431 -483
-672 -5 -25 -15 -54 -21 -65 -17 -29 -24 -440 -9 -459 11 -13 21 -47 25 -86 1
-8 7 -24 13 -36 7 -11 13 -31 15 -45 2 -13 7 -30 11 -36 5 -7 5 -19 1 -25 -4
-7 -3 -9 1 -5 5 4 24 -25 43 -64 40 -87 106 -188 160 -249 22 -24 38 -48 35
-54 -3 -5 -1 -6 5 -2 11 6 27 -10 27 -29 0 -5 5 -10 11 -10 9 0 70 -45 108
-80 25 -23 92 -70 99 -70 5 0 15 -9 23 -19 8 -11 14 -16 14 -12 0 5 7 2 17 -5
9 -8 18 -13 20 -11 2 2 32 -10 67 -27 36 -17 77 -33 93 -37 15 -4 33 -10 38
-14 12 -9 147 -39 225 -50 72 -11 251 -11 315 0 93 14 210 42 220 51 5 5 16 9
25 9 20 1 118 45 205 94 158 88 318 238 417 392 59 92 120 222 133 284 4 19
11 40 15 45 15 20 33 162 37 280 5 176 -33 371 -98 505 -17 36 -32 71 -33 78
-1 7 -8 18 -14 24 -7 7 -12 18 -12 25 0 7 -4 13 -9 13 -5 0 -12 8 -15 18 -3 9
-17 30 -31 46 -14 16 -25 32 -25 35 0 3 -20 28 -45 54 -25 27 -45 53 -45 58 0
5 -6 9 -14 9 -8 0 -18 9 -21 20 -3 11 -12 20 -18 20 -7 0 -29 16 -50 35 -69
63 -275 185 -313 185 -6 0 -15 5 -22 12 -6 6 -17 13 -24 14 -7 2 -26 6 -43 9
-16 3 -39 12 -50 19 -11 7 -42 13 -69 14 -27 1 -55 7 -62 13 -16 13 -64 19
-64 8 0 -5 -12 -4 -26 1 -29 11 -185 11 -259 -1z m174 -634 c146 -6 207 -18
291 -58 58 -27 160 -106 157 -121 -1 -6 3 -10 9 -9 14 2 93 -130 99 -165 2
-15 9 -45 14 -67 26 -99 9 -229 -43 -341 -26 -55 -123 -167 -137 -158 -5 3 -9
1 -9 -5 0 -14 -55 -42 -65 -33 -5 4 -5 1 -1 -5 4 -7 4 -13 -1 -14 -33 -3 -58
-11 -64 -21 -4 -7 -34 -16 -66 -20 -96 -15 -628 -14 -620 0 3 4 7 131 11 282
12 532 18 725 21 738 3 9 35 11 132 7 70 -3 193 -7 272 -10z"/>
<path d="M1166 1717 c-8 -26 -27 -643 -21 -660 6 -15 25 -17 189 -17 200 0
226 6 308 71 128 102 157 327 58 461 -11 15 -20 32 -20 37 0 5 -17 20 -37 32
-21 13 -39 27 -41 31 -2 4 -9 8 -15 8 -7 0 -25 7 -42 16 -34 17 -66 21 -248
29 -96 3 -129 2 -131 -8z"/>
</g>
</svg>
